<?xml version="1.0" encoding="UTF-8" standalone="no"?><svg xmlns="http://www.w3.org/2000/svg" xmlns:xlink="http://www.w3.org/1999/xlink" contentScriptType="application/ecmascript" contentStyleType="text/css" height="363px" preserveAspectRatio="none" style="width:251px;height:363px;background:#FFFFFF;" version="1.1" viewBox="0 0 251 363" width="251px" zoomAndPan="magnify"><defs><filter height="300%" id="f15t04p26zbjjf" width="300%" x="-1" y="-1"><feGaussianBlur result="blurOut" stdDeviation="2.0"/><feColorMatrix in="blurOut" result="blurOut2" type="matrix" values="0 0 0 0 0 0 0 0 0 0 0 0 0 0 0 0 0 0 .4 0"/><feOffset dx="4.0" dy="4.0" in="blurOut2" result="blurOut3"/><feBlend in="SourceGraphic" in2="blurOut3" mode="normal"/></filter></defs><g><ellipse cx="103" cy="16" fill="#000000" filter="url(#f15t04p26zbjjf)" rx="10" ry="10" style="stroke:none;stroke-width:1.0;"/><rect fill="#FEFECE" filter="url(#f15t04p26zbjjf)" height="34.1328" rx="12.5" ry="12.5" style="stroke:#A80036;stroke-width:1.5;" width="87" x="59.5" y="67"/><text fill="#000000" font-family="sans-serif" font-size="12" lengthAdjust="spacing" textLength="67" x="69.5" y="88.6016">Initialisation</text><polygon fill="#FEFECE" filter="url(#f15t04p26zbjjf)" points="103,142,115,154,103,166,91,154,103,142" style="stroke:#A80036;stroke-width:1.5;"/><rect fill="#FEFECE" filter="url(#f15t04p26zbjjf)" height="34.1328" rx="12.5" ry="12.5" style="stroke:#A80036;stroke-width:1.5;" width="78" x="22" y="240"/><text fill="#000000" font-family="sans-serif" font-size="12" lengthAdjust="spacing" textLength="58" x="32" y="261.6016">An activity</text><rect fill="#FEFECE" filter="url(#f15t04p26zbjjf)" height="34.1328" rx="12.5" ry="12.5" style="stroke:#A80036;stroke-width:1.5;" width="108" x="7" y="315"/><text fill="#000000" font-family="sans-serif" font-size="12" lengthAdjust="spacing" textLength="88" x="17" y="336.6016">Another activity</text><ellipse cx="145" cy="332" filter="url(#f15t04p26zbjjf)" rx="10" ry="10" style="stroke:#000000;stroke-width:1.0;fill:none;"/><ellipse cx="145.5" cy="332.5" fill="#000000" rx="6" ry="6" style="stroke:none;stroke-width:1.0;"/><rect fill="#FEFECE" filter="url(#f15t04p26zbjjf)" height="34.1328" rx="12.5" ry="12.5" style="stroke:#A80036;stroke-width:1.5;" width="106" x="91" y="186"/><text fill="#000000" font-family="sans-serif" font-size="12" lengthAdjust="spacing" textLength="86" x="101" y="207.6016">Something else</text><!--MD5=[168c2f326362fcf91329a97c312caafe]
link start to Initialisation--><path d="M103,26.18 C103,35.27 103,49.53 103,61.49 " fill="none" id="start-to-Initialisation" style="stroke:#A80036;stroke-width:1.0;"/><polygon fill="#A80036" points="103,66.79,107,57.79,103,61.79,99,57.79,103,66.79" style="stroke:#A80036;stroke-width:1.0;"/><!--MD5=[afcc94c8b427ed7aa92040f3ebfc93a6]
link Initialisation to #5--><path d="M103,101.12 C103,111.92 103,126.08 103,136.88 " fill="none" id="Initialisation-to-#5" style="stroke:#A80036;stroke-width:1.0;"/><polygon fill="#A80036" points="103,141.89,107,132.89,103,136.89,99,132.89,103,141.89" style="stroke:#A80036;stroke-width:1.0;"/><text fill="#000000" font-family="sans-serif" font-size="11" lengthAdjust="spacing" textLength="29" x="66.5688" y="131.4881">a test</text><!--MD5=[7c3c9ceac327ddba0150477e1382633d]
link #5 to An activity--><path d="M94.66,157.81 C83.72,162 64.96,171.04 57,186 C49.06,200.93 50.91,220.27 54.27,234.84 " fill="none" id="#5-to-An activity" style="stroke:#A80036;stroke-width:1.0;"/><polygon fill="#A80036" points="55.56,239.98,57.251,230.2774,54.344,235.1301,49.4912,232.2231,55.56,239.98" style="stroke:#A80036;stroke-width:1.0;"/><text fill="#000000" font-family="sans-serif" font-size="11" lengthAdjust="spacing" textLength="22" x="58" y="207.6348">true</text><!--MD5=[2a61410f1359bc0e0e84bcc680362a64]
link An activity to Another activity--><path d="M61,274.2 C61,284.69 61,298.46 61,309.82 " fill="none" id="An activity-to-Another activity" style="stroke:#A80036;stroke-width:1.0;"/><polygon fill="#A80036" points="61,314.84,65,305.84,61,309.84,57,305.84,61,314.84" style="stroke:#A80036;stroke-width:1.0;"/><!--MD5=[14518ea1a79a02d11bb86953a1b562de]
link Another activity to end--><path d="M115.14,332 C119.94,332 124.73,332 129.53,332 " fill="none" id="Another activity-to-end" style="stroke:#A80036;stroke-width:1.0;"/><polygon fill="#A80036" points="134.74,332,125.74,328,129.74,332,125.74,336,134.74,332" style="stroke:#A80036;stroke-width:1.0;"/><!--MD5=[d73beba7fcb51f91ef1c24c353dc0a65]
link #5 to Something else--><path d="M108.36,161.14 C112.98,166.44 119.9,174.38 126.43,181.86 " fill="none" id="#5-to-Something else" style="stroke:#A80036;stroke-width:1.0;"/><polygon fill="#A80036" points="129.99,185.94,127.094,176.5265,126.7056,182.17,121.0621,181.7816,129.99,185.94" style="stroke:#A80036;stroke-width:1.0;"/><text fill="#000000" font-family="sans-serif" font-size="11" lengthAdjust="spacing" textLength="25" x="120.36" y="171.3948">false</text><!--MD5=[6008a548d6e19d71c4fdb729e150d919]
link Something else to end--><path d="M144.13,220.08 C144.32,245.05 144.7,292.73 144.89,316.61 " fill="none" id="Something else-to-end" style="stroke:#A80036;stroke-width:1.0;"/><polygon fill="#A80036" points="144.93,321.88,148.8527,312.846,144.8871,316.8802,140.853,312.9146,144.93,321.88" style="stroke:#A80036;stroke-width:1.0;"/><text fill="#000000" font-family="sans-serif" font-size="11" lengthAdjust="spacing" textLength="98" x="145" y="261.6348">end the processes</text><!--MD5=[ffcfe429bc9012aadcba6d72e2a41acc]
@startuml
(*) - -> "Initialisation"
if "a test" then
- ->[true] "An activity"
- -> "Another activity"
-right-> (*)
else
->[false] "Something else"
- ->[end the processes] (*)
endif
@enduml

PlantUML version 1.2021.12(Tue Oct 05 18:01:58 CEST 2021)
(GPL source distribution)
Java Runtime: OpenJDK Runtime Environment
JVM: OpenJDK 64-Bit Server VM
Default Encoding: UTF-8
Language: de
Country: DE
--></g></svg>
