<?xml version="1.0" encoding="UTF-8" standalone="no"?><svg xmlns="http://www.w3.org/2000/svg" xmlns:xlink="http://www.w3.org/1999/xlink" contentScriptType="application/ecmascript" contentStyleType="text/css" height="69px" preserveAspectRatio="none" style="width:114px;height:69px;background:#FFFFFF;" version="1.1" viewBox="0 0 114 69" width="114px" zoomAndPan="magnify"><defs><filter height="300%" id="foybsrt19s6of" width="300%" x="-1" y="-1"><feGaussianBlur result="blurOut" stdDeviation="2.0"/><feColorMatrix in="blurOut" result="blurOut2" type="matrix" values="0 0 0 0 0 0 0 0 0 0 0 0 0 0 0 0 0 0 .4 0"/><feOffset dx="4.0" dy="4.0" in="blurOut2" result="blurOut3"/><feBlend in="SourceGraphic" in2="blurOut3" mode="normal"/></filter></defs><g><!--MD5=[faebc81c07309c527f2fda51bf6b78ab]
class Annotation--><rect codeLine="1" fill="#FEFECE" filter="url(#foybsrt19s6of)" height="48" id="Annotation" style="stroke:#A80036;stroke-width:1.5;" width="93" x="7" y="7"/><ellipse cx="22" cy="23" fill="#E3664A" rx="11" ry="11" style="stroke:#A80036;stroke-width:1.0;"/><path d="M24.0767,23.2261 Q24.0767,22.2881 23.6533,21.7568 Q23.23,21.2256 22.4912,21.2256 Q21.7524,21.2256 21.3333,21.7568 Q20.9141,22.2881 20.9141,23.2261 Q20.9141,24.1724 21.3333,24.7036 Q21.7524,25.2349 22.4912,25.2349 Q23.23,25.2349 23.6533,24.7036 Q24.0767,24.1724 24.0767,23.2261 Z M25.6206,26.6294 L23.9937,26.6294 L23.9937,25.9487 Q23.6782,26.3887 23.2507,26.592 Q22.8232,26.7954 22.2256,26.7954 Q20.8643,26.7954 20.03,25.8159 Q19.1958,24.8364 19.1958,23.2261 Q19.1958,21.624 20.0259,20.6487 Q20.856,19.6733 22.2256,19.6733 Q22.8149,19.6733 23.2632,19.8767 Q23.7114,20.0801 23.9937,20.4702 L23.9937,20.1299 Q23.9937,19.001 23.3752,18.3867 Q22.7568,17.7725 21.6113,17.7725 Q19.8848,17.7725 18.7932,19.2915 Q17.7017,20.8105 17.7017,23.2427 Q17.7017,25.791 18.9634,27.2976 Q20.2251,28.8042 22.3252,28.8042 Q22.9893,28.8042 23.6118,28.6091 Q24.2344,28.4141 24.8071,28.0239 L25.5708,29.4849 Q24.8984,29.9414 24.1057,30.1697 Q23.313,30.3979 22.4082,30.3979 Q19.5029,30.3979 17.7764,28.4639 Q16.0498,26.5298 16.0498,23.2427 Q16.0498,20.0303 17.6021,18.1003 Q19.1543,16.1704 21.7109,16.1704 Q23.5205,16.1704 24.5706,17.262 Q25.6206,18.3535 25.6206,20.2378 Z " fill="#000000"/><text fill="#000000" font-family="sans-serif" font-size="12" lengthAdjust="spacing" textLength="61" x="36" y="27.5352">Annotation</text><line style="stroke:#A80036;stroke-width:1.5;" x1="8" x2="99" y1="39" y2="39"/><line style="stroke:#A80036;stroke-width:1.5;" x1="8" x2="99" y1="47" y2="47"/><!--MD5=[70cf0da244338f2301efa1a01a2d205b]
@startuml
annotation      Annotation
@enduml

PlantUML version 1.2021.12(Tue Oct 05 18:01:58 CEST 2021)
(GPL source distribution)
Java Runtime: OpenJDK Runtime Environment
JVM: OpenJDK 64-Bit Server VM
Default Encoding: UTF-8
Language: de
Country: DE
--></g></svg>