<?xml version="1.0" encoding="UTF-8" standalone="no"?><svg xmlns="http://www.w3.org/2000/svg" xmlns:xlink="http://www.w3.org/1999/xlink" contentScriptType="application/ecmascript" contentStyleType="text/css" height="268px" preserveAspectRatio="none" style="width:292px;height:268px;background:#FFFFFF;" version="1.1" viewBox="0 0 292 268" width="292px" zoomAndPan="magnify"><defs><filter height="300%" id="fjzyhtl5ul2cc" width="300%" x="-1" y="-1"><feGaussianBlur result="blurOut" stdDeviation="2.0"/><feColorMatrix in="blurOut" result="blurOut2" type="matrix" values="0 0 0 0 0 0 0 0 0 0 0 0 0 0 0 0 0 0 .4 0"/><feOffset dx="4.0" dy="4.0" in="blurOut2" result="blurOut3"/><feBlend in="SourceGraphic" in2="blurOut3" mode="normal"/></filter></defs><g><ellipse cx="147" cy="16" fill="#000000" filter="url(#fjzyhtl5ul2cc)" rx="10" ry="10" style="stroke:none;stroke-width:1.0;"/><rect fill="#000000" filter="url(#fjzyhtl5ul2cc)" height="8" style="stroke:none;stroke-width:1.0;" width="80" x="107" y="66"/><rect fill="#FEFECE" filter="url(#fjzyhtl5ul2cc)" height="34.1328" rx="12.5" ry="12.5" style="stroke:#A80036;stroke-width:1.5;" width="134" x="7" y="114"/><text fill="#000000" font-family="sans-serif" font-size="12" lengthAdjust="spacing" textLength="114" x="17" y="135.6016">First parallel activity</text><rect fill="#000000" filter="url(#fjzyhtl5ul2cc)" height="8" style="stroke:none;stroke-width:1.0;" width="80" x="107" y="188"/><rect fill="#FEFECE" filter="url(#fjzyhtl5ul2cc)" height="34.1328" rx="12.5" ry="12.5" style="stroke:#A80036;stroke-width:1.5;" width="117" x="161.5" y="114"/><text fill="#000000" font-family="sans-serif" font-size="12" lengthAdjust="spacing" textLength="97" x="171.5" y="135.6016">Parallel activity 2</text><ellipse cx="147" cy="246" filter="url(#fjzyhtl5ul2cc)" rx="10" ry="10" style="stroke:#000000;stroke-width:1.0;fill:none;"/><ellipse cx="147.5" cy="246.5" fill="#000000" rx="6" ry="6" style="stroke:none;stroke-width:1.0;"/><!--MD5=[6396badacac00578348ddb3cf20ba689]
link start to B1--><path d="M147,26.06 C147,35.8 147,51.15 147,60.62 " fill="none" id="start-to-B1" style="stroke:#A80036;stroke-width:1.0;"/><polygon fill="#A80036" points="147,65.87,151,56.87,147,60.87,143,56.87,147,65.87" style="stroke:#A80036;stroke-width:1.0;"/><!--MD5=[f972a2f62dc9b142029e5b1c08d3fad4]
link B1 to First parallel activity--><path d="M143.08,74.17 C134.67,80.97 114.34,97.4 97.9,110.68 " fill="none" id="B1-to-First parallel activity" style="stroke:#A80036;stroke-width:1.0;"/><polygon fill="#A80036" points="93.82,113.99,103.3331,111.4402,97.7076,110.8457,98.3021,105.2201,93.82,113.99" style="stroke:#A80036;stroke-width:1.0;"/><!--MD5=[82b758443a4b3766965adb64976975d4]
link First parallel activity to B2--><path d="M93.95,148.12 C108.87,160.18 128.48,176.03 139.19,184.68 " fill="none" id="First parallel activity-to-B2" style="stroke:#A80036;stroke-width:1.0;"/><polygon fill="#A80036" points="143.19,187.92,138.7079,179.1501,139.3024,184.7757,133.6769,185.3702,143.19,187.92" style="stroke:#A80036;stroke-width:1.0;"/><!--MD5=[2c43bba23f71b221d4286ec9106b914d]
link B1 to Parallel activity 2--><path d="M150.92,74.17 C159.33,80.97 179.66,97.4 196.1,110.68 " fill="none" id="B1-to-Parallel activity 2" style="stroke:#A80036;stroke-width:1.0;"/><polygon fill="#A80036" points="200.18,113.99,195.6979,105.2201,196.2924,110.8457,190.6669,111.4402,200.18,113.99" style="stroke:#A80036;stroke-width:1.0;"/><!--MD5=[0a05c9f4f3eb10ecabc8caa54221bd12]
link Parallel activity 2 to B2--><path d="M200.05,148.12 C185.13,160.18 165.52,176.03 154.81,184.68 " fill="none" id="Parallel activity 2-to-B2" style="stroke:#A80036;stroke-width:1.0;"/><polygon fill="#A80036" points="150.81,187.92,160.3231,185.3702,154.6976,184.7757,155.2921,179.1501,150.81,187.92" style="stroke:#A80036;stroke-width:1.0;"/><!--MD5=[67dd31f82dae465fe6f080fdaa978b88]
link B2 to end--><path d="M147,196.1 C147,202.77 147,218.87 147,230.78 " fill="none" id="B2-to-end" style="stroke:#A80036;stroke-width:1.0;"/><polygon fill="#A80036" points="147,235.91,151,226.91,147,230.91,143,226.91,147,235.91" style="stroke:#A80036;stroke-width:1.0;"/><!--MD5=[e4d717bdc866ce3c64826e41fce88626]
@startuml
(*) - -> ===B1===
- -> "First parallel activity"
- -> ===B2===
===B1=== - -> "Parallel activity 2"
- -> ===B2===
- -> (*)
@enduml

PlantUML version 1.2021.12(Tue Oct 05 18:01:58 CEST 2021)
(GPL source distribution)
Java Runtime: OpenJDK Runtime Environment
JVM: OpenJDK 64-Bit Server VM
Default Encoding: UTF-8
Language: de
Country: DE
--></g></svg>