<?xml version="1.0" encoding="UTF-8" standalone="no"?><svg xmlns="http://www.w3.org/2000/svg" xmlns:xlink="http://www.w3.org/1999/xlink" contentScriptType="application/ecmascript" contentStyleType="text/css" height="227px" preserveAspectRatio="none" style="width:353px;height:227px;background:#FFFFFF;" version="1.1" viewBox="0 0 353 227" width="353px" zoomAndPan="magnify"><defs><filter height="300%" id="f11yyz4l6zo7i2" width="300%" x="-1" y="-1"><feGaussianBlur result="blurOut" stdDeviation="2.0"/><feColorMatrix in="blurOut" result="blurOut2" type="matrix" values="0 0 0 0 0 0 0 0 0 0 0 0 0 0 0 0 0 0 .4 0"/><feOffset dx="4.0" dy="4.0" in="blurOut2" result="blurOut3"/><feBlend in="SourceGraphic" in2="blurOut3" mode="normal"/></filter></defs><g><!--MD5=[fee662a292a0353a69bd162820bae93b]
entity User--><ellipse cx="71" cy="22.5" fill="#FEFECE" filter="url(#f11yyz4l6zo7i2)" rx="8" ry="8" style="stroke:#A80036;stroke-width:1.5;"/><path d="M71,30.5 L71,57.5 M58,38.5 L84,38.5 M71,57.5 L58,72.5 M71,57.5 L84,72.5 " fill="none" filter="url(#f11yyz4l6zo7i2)" style="stroke:#A80036;stroke-width:1.5;"/><text fill="#000000" font-family="sans-serif" font-size="14" lengthAdjust="spacing" textLength="31" x="55.5" y="91.5352">User</text><ellipse cx="71.2254" cy="188.818" fill="#FEFECE" filter="url(#f11yyz4l6zo7i2)" rx="65.2254" ry="26.318" style="stroke:#A80036;stroke-width:1.5;"/><text fill="#000000" font-family="sans-serif" font-size="14" lengthAdjust="spacing" textLength="65" x="38.7254" y="183.8648">Using the</text><text fill="#000000" font-family="sans-serif" font-size="14" lengthAdjust="spacing" textLength="76" x="33.2254" y="200.3531">application</text><!--MD5=[97ab183161fd5d1db7fba7485cf76add]
entity Admin--><ellipse cx="256" cy="14" fill="#FEFECE" filter="url(#f11yyz4l6zo7i2)" rx="8" ry="8" style="stroke:#A80036;stroke-width:1.5;"/><path d="M256,22 L256,49 M243,30 L269,30 M256,49 L243,64 M256,49 L269,64 " fill="none" filter="url(#f11yyz4l6zo7i2)" style="stroke:#A80036;stroke-width:1.5;"/><text fill="#000000" font-family="sans-serif" font-size="14" lengthAdjust="spacing" textLength="61" x="203" y="83.0352">Group of</text><text fill="#000000" font-family="sans-serif" font-size="14" lengthAdjust="spacing" textLength="102" x="203" y="99.5234">Administrators</text><ellipse cx="256.0244" cy="188.818" fill="#FEFECE" filter="url(#f11yyz4l6zo7i2)" rx="85.0244" ry="26.318" style="stroke:#A80036;stroke-width:1.5;"/><text fill="#000000" font-family="sans-serif" font-size="14" lengthAdjust="spacing" textLength="97" x="207.5244" y="183.8648">Administering</text><text fill="#000000" font-family="sans-serif" font-size="14" lengthAdjust="spacing" textLength="104" x="204.0244" y="200.3531">the Application</text><!--MD5=[9b1e83a301d632e8d5a1d64f176fc1f5]
link User to Use--><path d="M71,94.19 C71,114.29 71,138.32 71,157.02 " fill="none" id="User-to-Use" style="stroke:#A80036;stroke-width:1.0;"/><polygon fill="#A80036" points="71,162.15,75,153.15,71,157.15,67,153.15,71,162.15" style="stroke:#A80036;stroke-width:1.0;"/><!--MD5=[6cf209b7b627ceddf41f7ef8b460f2bf]
link Admin to Administering\nthe Application--><path d="M256,102.7 C256,120.81 256,140.91 256,157.05 " fill="none" id="Admin-to-Administering\nthe Application" style="stroke:#A80036;stroke-width:1.0;"/><polygon fill="#A80036" points="256,162.36,260,153.36,256,157.36,252,153.36,256,162.36" style="stroke:#A80036;stroke-width:1.0;"/><!--MD5=[3097f20da6dfa13e96e606ff04aa32d4]
@startuml
:User: - -> (Use)
"Group of\nAdministrators " as Admin
"Using the\napplication" as (Use)
Admin - -> (Administering\nthe Application)
@enduml

PlantUML version 1.2021.12(Tue Oct 05 18:01:58 CEST 2021)
(GPL source distribution)
Java Runtime: OpenJDK Runtime Environment
JVM: OpenJDK 64-Bit Server VM
Default Encoding: UTF-8
Language: de
Country: DE
--></g></svg>